<?xml version="1.0" encoding="UTF-8"?>
<svg id="Layer_1" data-name="Layer 1" xmlns="http://www.w3.org/2000/svg" xmlns:xlink="http://www.w3.org/1999/xlink" viewBox="0 0 1080 467">
  <defs>
    <style>
      .cls-1 {
        fill: none;
      }

      .cls-2 {
        letter-spacing: 0em;
      }

      .cls-3 {
        letter-spacing: .18em;
      }

      .cls-4 {
        letter-spacing: .2em;
      }

      .cls-5 {
        letter-spacing: .2em;
      }

      .cls-6 {
        letter-spacing: .2em;
      }

      .cls-7 {
        clip-path: url(#clippath-1);
      }

      .cls-8 {
        fill: #d9d2bf;
        font-family: OfeliaText-Regular, 'Ofelia Text';
        font-size: 100.36px;
      }

      .cls-9 {
        fill: #f8f7f0;
      }

      .cls-10 {
        letter-spacing: .09em;
      }

      .cls-11 {
        clip-path: url(#clippath);
      }
    </style>
    <clipPath id="clippath">
      <rect class="cls-1" y=".07" width="1080" height="466.85"/>
    </clipPath>
    <clipPath id="clippath-1">
      <rect class="cls-1" y=".07" width="1080" height="466.85"/>
    </clipPath>
  </defs>
  <g id="The-Den_White">
    <g class="cls-11">
      <g class="cls-7">
        <path class="cls-9" d="M57.47,149.81v72.43c0,14.28,7.82,22.44,21.08,22.44,7.14,0,15.64-2.38,20.74-4.42v29.93c-6.12,2.72-16.32,5.1-27.21,5.1-30.95,0-48.97-18.7-48.97-49.65v-75.83H0l5.1-29.24h18.02v-29.07l34.35-21.38v50.46h41.83v29.24h-41.83Z"/>
        <path class="cls-9" d="M272.39,180.07v92.5h-34.35v-88.42c0-23.81-13.6-36.73-33.32-36.73-21.43,0-36.73,15.3-36.73,39.11v86.04h-34.35V21.84L167.98.07v137.84c10.88-13.6,26.87-21.09,46.25-21.09,34.69,0,58.15,23.81,58.15,63.25"/>
        <path class="cls-9" d="M444.45,221.9l11.22,27.55c-18.71,17-42.51,26.86-68.01,26.86-47.61,0-82.3-34.69-82.3-79.57s35.03-79.92,80.94-79.92c38.43,0,69.03,25.17,73.8,67.34l-117.66,38.09c8.16,15.64,24.14,26.19,45.57,26.19,19.73,0,38.77-8.16,56.45-26.53M336.65,195.38l87.4-28.56c-6.46-13.95-20.74-22.45-37.75-22.45-27.55,0-48.63,22.1-49.65,51.01"/>
        <path class="cls-9" d="M716.15,35.8v236.77h-32.65v-21.08c-12.58,15.3-30.95,24.82-52.71,24.82-42.17,0-76.86-35.02-76.86-79.91s34.69-79.58,76.86-79.58c20.74,0,38.09,8.16,50.67,22.11V13.82l34.69,21.98ZM684.18,196.4c0-27.54-21.08-49.31-48.29-49.31s-48.29,21.76-48.29,49.31,21.08,49.65,48.29,49.65,48.29-21.76,48.29-49.65"/>
        <path class="cls-9" d="M890.25,221.9l11.22,27.55c-18.71,17-42.51,26.86-68.01,26.86-47.61,0-82.3-34.69-82.3-79.57s35.03-79.92,80.94-79.92c38.43,0,69.03,25.17,73.8,67.34l-117.66,38.09c8.16,15.64,24.14,26.19,45.57,26.19,19.73,0,38.77-8.16,56.45-26.53M782.45,195.38l87.4-28.56c-6.46-13.95-20.74-22.45-37.75-22.45-27.55,0-48.63,22.1-49.65,51.01"/>
        <path class="cls-9" d="M1080,180.07v92.5h-34.35v-88.42c0-24.15-13.6-37.07-33.32-37.07-21.43,0-36.73,15.3-36.73,39.44v86.04h-34.35V122.94l32.99-5.1v19.72c11.22-13.26,27.88-20.74,47.27-20.74,35.37,0,58.49,23.81,58.49,63.25"/>
        <text class="cls-8" transform="translate(212.69 443.34)"><tspan class="cls-4" x="0" y="0">RE</tspan><tspan class="cls-10" x="182.25" y="0">W</tspan><tspan class="cls-6" x="307.29" y="0">A</tspan><tspan class="cls-5" x="402.23" y="0">R</tspan><tspan class="cls-3" x="497.87" y="0">D</tspan><tspan class="cls-2" x="597.83" y="0">S</tspan></text>
      </g>
    </g>
  </g>
</svg>