<?xml version="1.0" encoding="UTF-8"?>
<svg id="Layer_1" data-name="Layer 1" xmlns="http://www.w3.org/2000/svg" viewBox="0 0 406.58 421.22">
  <defs>
    <style>
      .cls-1 {
        fill: #f8f6ef;
      }
    </style>
  </defs>
  <path class="cls-1" d="M216.67,90.1c.74,2.44.89,5.1.3,7.71-.59,2.61-1.19,5.06-1.89,7.38l-4.05,9.32c-1.75,2.84-4.01,5.48-7.08,8-3.92,3.21-7.94,5.42-12.11,7.09-.32.21-.66.32-1,.43-2.96,1.1-6,1.93-9.22,2.36.12.16.22.29.35.45-.25-.15-.52-.22-.78-.36-2.89.35-5.89.47-9.08.34-23.16-.98-47.06-4.75-69.69.4-.23.05-.46,0-.69.04-.26.1-.5.24-.76.32-2.13.65-4.25,1.35-6.34,2.12-.85.31-1.7.64-2.55.97-.26.1-.57.22-.81.32-3.51,1.48-6.94,3.16-10.29,4.97-4.9,2.64-9.68,5.55-14.45,8.46l-1.11.67c-1.28.79-2.57,1.57-3.86,2.35-.02.01-.04.03-.06.04l-1.44.94c-2.87,1.77-5.72,3.56-8.45,5.54-.12.09-.9.68-1.27.96-.38.32-1.04.87-1.15.96-1.52,1.29-2.99,2.63-4.38,4.05-2.76,2.81-5.25,5.89-7.7,8.97l-1.83,2.34c-.19.25-.43.58-.81,1.1-1.36,1.83-2.69,3.68-4.01,5.53,0,0,0,0-.01.01-8.02,14.24-12.87,29.58-16.33,45.58-1.74,8.04-3.11,16.16-4.36,24.29-.78,5.07-.98,10.39-1.31,15.77.06-.04.09-.06.15-.1-.06.11-.11.2-.16.3-.09,1.52-.26,3.05-.42,4.58-.04.36-.04.96,0,1.32h0c.1,1.18.05,2.36.11,3.54.02-.01.04-.02.06-.03-.02.04-.04.07-.06.11.5,9.95-.27,19.88-1.52,29.76.01,0,.02,0,.04.01,0,.05-.04.1-.06.15-.55,4.36-1.15,8.71-1.76,13.05-1.75,12.52-3.92,41.24-3.92,41.24-.7,6.12-1.11,13.28-.84,21.25.27,7.83,1.16,14.83,2.25,20.81,2.87,7.92,11.81,9.99,19.56,10.44,10.64.62,21.23,1.68,32.15.06,3.28-.49,8.23-1.21,12.43-.96,1.85.11,3.7.14,5.53-.06,1.28-.14,2.57-.3,3.85-.47,5.33-.7,7.7-2.54,7.85-7.99,0-.25.03-.49.06-.73-.89-4.26-5.05-10.11-8.8-11.83-2.08-.95-4.1-2.28-6.25-3.23-9.52-4.22-13.12-13.42-5.78-20.3,4.6-4.32,4.41-11.38,10.13-13.87,7.96-3.46,8.3-12.7,14.23-17.97.12.32.4.63.72.92.88.83,1.99,1.33,3.11,1.78,1.19.48,1.65,1.93,2.27,3.69,1.38,3.94,1.93,8.23,2.37,12.36.36,3.35.39,6.73.04,10.08.05,0,.07-.04.13-.04-.06.12-.1.25-.16.37-.04.33-.05.66-.07.98.05.26.1.54.1.84.16,6.93-.13,14.05,1.52,20.84,1.32,5.44,3.65,9.09,6.78,12.74,2.24,2.06,5.08,3.64,8.82,4.38,15.06,2.98,30,5.07,45.4,2.43,5.82-1,11.82-1.19,17.78-1.23,2.62-.02,5.19-1.06,6.87-3.06,1.09-1.3,1.85-2.91,2.11-4.98.77-5.94-2.98-11.58-8.28-13.99-.47-.12-.92-.26-1.42-.35-4.39-.8-8.77-1.6-13.14-2.48-5.53-1.12-8.09-5.75-7.26-11.39.81-5.53,1.85-10.96,3.41-16.32.09-.24.17-.49.26-.73,1.77-4.39,2.86-9.03,2.6-13.76-.26-4.68.62-9.38,2.65-13.65.3-.64.77-1.15,1.14-1.75l.93-1.43c1.27-1.7,2.7-3.26,4.41-4.54,1.44-1.08,3.15-1.99,4.89-2.63,1.72-.63,3.27-1.65,4.64-2.87l1.8-1.61c1.63-1.46,4.23-.69,4.8,1.42h0c.15.56.31,1.12.48,1.67,1.29,4.11,3.33,7.93,5.6,11.6,1.86,3,3.06,6.4,4.35,9.94,1.73,4.73,4.14,9.31,6.49,13.86l1.15,2.25c.38.76.8,1.53,1.16,2.28,3.28,6.78,6.4,13.82,8.61,21.09.08.18.16.34.22.54,1.98,6.76,4.54,13.25,6.17,20.02,1.17,3.86,1.76,7.87,4.16,11.11,2.91,3.93,7.17,6.29,11.79,7.31,20.77,4.61,41.71,6.37,62.96,3.59,8.03-1.05,16.25-.57,24.17-2.66.37-.17.74-.36,1.11-.59,2.73-1.67,4.1-4.26,4.77-5.96,2.29-.17,5.71-.48,9.85-1.07,7.82-1.12,11.76-1.73,13.49-3.85,2.97-3.67,1.68-10.27-.86-14.34-4.34-6.97-13.55-8.53-17.55-9.2-7.77-1.32-11.19-1.39-11.19-1.39-6.92-.19-5.64-10.97-7.04-16.73-.87-3.6-1.81-6.87-1.25-10.46.48-3.07.99-6.15,1.21-9.25.64-9.16,1.34-14.65,1.34-14.65,2.54-11.39,2.83-23.38,3.6-35,.82-12.37,1.65-24.7,3.38-36.99,1.46-10.4,3.77-21.57,2.58-32.15-.24-1.6-.29-3.22-.09-4.83,0-.17-.02-.35,0-.52-.31,1.67,0-3.17-.02-3.74-.07-2.03-.26-4.06-.44-6.08-.37-4.27-.62-8.55-.88-12.83-.27-4.43-.49-8.87-.54-13.31-.02-.03-.04-.06-.06-.09.02,0,.04.02.06.02-.04-4.31.07-8.62.51-12.92.58-5.74,2.01-10.93,4.2-15.96l.69-1.68c.89-1.86,1.89-3.69,3.02-5.52,1.67-2.72,3.47-5.37,5.01-8.16.25-.46,1.16-2.77,1.32-2.99l.31-1.16c.24-.82.49-1.63.64-2.49.35-1.93,1.18-3.59,2.34-4.98.19-2.42.86-4.82,2.48-7.18,1.37-.04,3.1,6.04,4.52.21,1.01-4.12,5.03-5.52,7.51-7.39,5.73-4.31,8.13-10.53,11.82-15.93,7.39-10.8,16.52-19.99,25.53-29.33,7.61-7.89,13.29-16.24,10.76-28.23-.48-2.3-.66-4.7-.68-7.13-.65-2.04-.86-4.22-.76-6.36-.12-.54-.38-1.01-.31-1.64.16-1.49-.03-2.99-.83-4.25l-.47-.75c-.49-.62-1.05-1.16-1.63-1.68-3.23-2-8.59-1.1-11.96-.55-3.78.62-7.6,1.46-11.44,1.71-11.69,3.1-23.32,1.93-35.72-4.74-29.97-16.14-58.16-8.72-84.37,10.22-5.68,4.1-5.51,4.34-12.78,3.72-1.03,2.24,2.82,1.74,2.09,3.53-.86,2.1-2.9,1.1-4.33.95-6.67-.7-12.62-3.53-18.56-6.45-7.34-3.61-14.9-5.44-23.1-2.7-7.41,2.48-15.23,10.49-15.1,18.94.13,8.4-.72,17.38,6.47,24.19,10.69,10.13,5,11.77,23.53,15.01,0,.31-.07.58-.17.82-.62,1.51-.76,3.17-.05,4.64.06.13.12.26.18.39l.69,1.75Z"/>
  <path class="cls-1" d="M214.91,105.71c-.84,2.68-1.86,5.2-3.19,7.57"/>
  <path class="cls-1" d="M282.44,14.65c-4.11-7.69-13.9-15.33-21.44-14.61-6.14.59-11.36,3.82-13.78,10.35-1.77,4.76-.47,9.31.58,13.73.67,2.81,2.69,9.24,4.87,7.23,7.51-6.92,20.17-13.1,29.76-16.7Z"/>
</svg>