<?xml version="1.0" encoding="UTF-8"?>
<svg id="Layer_1" data-name="Layer 1" xmlns="http://www.w3.org/2000/svg" viewBox="0 0 1080 1225">
  <defs>
    <style>
      .cls-1 {
        fill: #392417;
      }
    </style>
  </defs>
  <path class="cls-1" d="M899.97,120.16c-2.62-8.16-4.84-11.38-5.34-14.31-1.01-5.34-.6-7.66,0-14.81.71-8.36-6.25-15.11-11.79-16.22-.81-.1-1.51-.3-2.22-.4-4.03-.71-7.15-.71-17.53-.91-2.92-.1-11.28-.2-11.28-.2-4.13.1-7.66.71-12.69.71h-.3c-2.42,0-5.14-.1-8.46-.5-12.69-1.41-26.8-5.24-34.96-5.34-1.21-.1-2.01-.1-2.52-.2l-3.32-.4c-.5-.1-.81-.3-1.11-.5l-2.32-2.12c-.5-.4-1.01-.91-1.51-1.41-3.02-2.72-6.35-5.94-11.79-8.36-8.46-3.83-20.45-5.04-33.15-6.25-5.04-.5-13.5-1.71-19.24-2.82-2.12-.4-4.84-1.21-8.56-7.35-.71-1.01-9.37-17.33-17.43-29.12-4.03-5.84-8.66-9.07-14-9.57-4.33-.4-9.87.91-13.2,4.33-4.74,4.73-8.56,9.87-10.38,22.06-.81,6.04-.81,8.56-1.91,12.09-.4,1.31-1.41,3.53-3.93,5.54-1.41,1.11-8.46,5.04-11.59,6.55-.3.2-.6.3-.81.4-4.33,1.81-8.87,1.71-11.59.91l-9.37-3.32c-.1,0-.1-.1-.2-.1-10.58-4.43-20.96-9.27-28.61-1.51-5.94,6.04-8.46,15.01-9.37,18.24-1.91,6.65-1.81,16.42-1.31,21.96.6,6.65-4.94,13.3-18.94,27.6-15.01,15.31-27.2,31.84-36.87,47.65-15.62,25.49-24.78,49.27-28.61,62.77,0,.02,0,.04-.01.05-1.01,3.56-3.2,6.69-6.21,8.84-8.58,6.14-22.5,14.09-29.23,17.58-34.9,18.1-52.51,48.64-61.51,85.44-4.49,18.38-6.99,37.08-7.95,55.88-.73,14.37-5.06,27.17-12.41,39.17-15.79,25.77-31.63,51.52-47.65,77.15-28.09,44.95-56.02,89.98-78.67,138.02-17.98,38.14-32.02,77.54-37.96,119.51-1.96,13.88-3.86,27.8-3.29,41.84.9,22.1-2.58,44.21-9.89,65.09-6.77,19.34-10.78,39.36-12.79,59.77-1.86,18.95.86,37.55,3.97,56.1,1.7,10.16,5.26,26.61,7.46,36.67,3.21,14.66,13.83,51.15.64,89.7-4.49,13.11-11.7,25.14-15.98,38.39-5.15,15.96-3.48,28.24,3.35,43.3,5.87,12.92,17.65,22.19,31.55,25.03,4.86.99,9.83,2.02,14.75,2.05,31.64.18,52.24.72,83.81-2.18,5.58-.51,11.22-1.76,16.53-3.55,9.48-3.2,13.16-14.66,7.47-22.89-5.02-7.26-12.38-11.47-20.52-14.42-15.7-5.69-8.84-8.39-3.54-20.51,10.97-25.09,36.54-40.55,58.48-56.94,16.39-12.24,16.28-9.43,21.98-21.37,4.08-8.53,3.44-8.78,11.82-5.09,8.77,3.86,17.51,7.78,26.37,11.42,10.05,4.12,19.52,9.52,28.22,16.02,9.59,7.17,12.17,8.31,31.82,15.52,5.01,1.84,6.75,4.58,8.28,8.61,6.07,15.95,12.13,31.91,18.19,47.86,1.01,2.66,2.24,5.27,2.93,8.01,4.49,17.74,17.45,24.25,34.07,25.15,16.34.89,32.73.78,49.05-.54,25.15-2.03,41.9,4.28,66.94,1.11,9.92-1.25,19.62-3.24,29.12-6.28,6.3-2.02,8.57-5.41,7.49-12.06-1.45-8.88-7.92-13.36-14-20.32-5.58-6.39-12.99-11.62-36.29-16.71-21.5-4.69-13.64-3.62-15.16-25.81-2.73-39.77-11.82-78.75-13.55-118.6-.51-11.71-.1-23.43-1.63-35.14-3.85-29.52-3.04-82.25-18.54-107.31-10.1-16.33-11.68-14.32-1.61-32.84,4.47-8.21,9.38-16.17,14.75-23.83,10.85-15.5,21.7-30.94,31.23-47.73,6.27,20.87,16.65,38.31,32.71,52.92,6.38,5.8,13.86,10.2,21.74,13.7,6.74,2.99,10.47,7.4,8.71,15.32-.15.69-.18,1.41-.21,2.12-.1,1.83-.02,3.8,2.14,4.27,1.9.41,3.51-.8,4.41-2.36,2.64-4.57,5.09-9.24,7.52-13.68,3.93.04,2.95,2.85,3.36,4.63.49,2.16.93,4.49,3.39,4.86,2.99.44,4.26-1.96,5.37-4.27.75-1.55.65-3.52,2.29-4.63,4.81,3.91,6.18,4.18,8.81.39,7.6-10.96,12.21-22.61,6.37-35.99-1.56-3.58-2.77-7.51-5.13-10.5-11.76-14.89-15.54-32.41-17.81-50.6-1.19-9.51-2.96-18.96-4.71-28.39-1.74-9.36-1.47-9.93,7.73-10.03,8.18-.09,16.36.06,24.54,0,10.31-.09,20.64-.12,30.87-1.69,5.56-.85,8.9,1.22,9.75,6.95.31,2.11.82,4.18,1.24,6.27,4.26,21.26,14.19,39.27,30.41,53.81,8.16,7.31,8,7.48,2.92,17.56-.48.95-1.07,1.86-1.38,2.87-.43,1.38-.56,2.87.76,3.91,1.25.99,2.75.81,3.97.05,2.08-1.28,4.01-2.8,5.97-4.2.61.58,1.45,1.01,1.45,1.44,0,3.73-2.67,8.11,1.49,10.86,4.2,2.77,8.24-.12,12.01-1.91,14.73-7.01,27.36-28.56,23.05-44.43-6.4-23.54-5.18-47.2-5.26-70.96-.03-9.65-1.13-19.16-3.14-28.57-4.57-21.4-17.92-36.81-34.51-49.8-13.44-10.53-27.21-20.62-40.91-30.81-5.73-4.26-11.02-8.98-16.03-14.04-8.91-8.99-14.26-19.63-13.78-32.43,1.42-37.92-7.01-74.13-18.35-109.9-6.25-19.69-7.36-39.48-3.71-59.41.88-4.79,1.31-9.65,1.4-14.52.52-27.28,6.01-41.08,8.56-62.26-.2-.5-.2-.91-.3-1.31-.2-1.41.1-3.22.4-4.23.6-2.01,6.45-11.59,8.16-16.93.3-1.01.6-1.81.91-2.62,1.31-3.63,4.43-3.53,6.65-1.81,2.32,1.81,6.25-3.33,7.66-5.24,1.31-1.91,8.77-10.28,17.23-17.03,1.21-1.01,2.72-2.12,4.23-3.32,5.54-4.23,12.09-9.07,13.7-10.58,1.61-1.41,4.63-5.24,6.35-7.56.91-1.11,1.51-1.91,1.51-1.91,2.82-3.32,12.69-11.08,12.69-11.08,5.04-4.03,7.96-5.24,12.8-6.95.2-.1.4-.1.6-.2,3.12-1.21,6.95-2.72,11.59-5.34,8.87-5.14,13-12.19,15.01-16.52.5-1.21,1.01-2.02,1.51-2.92l1.21-1.81c4.94-7.15,7.46-11.18,5.34-16.93-.5-1.31-.91-4.43,1.71-6.45,2.22-1.71,4.84-4.94,5.74-6.85,2.32-4.94,3.12-8.46,1.61-13.2Z"/>
</svg>