<?xml version="1.0" encoding="UTF-8"?>
<svg id="Layer_1" data-name="Layer 1" xmlns="http://www.w3.org/2000/svg" viewBox="0 0 1080 627">
  <defs>
    <style>
      .cls-1 {
        fill: #256a74;
      }
    </style>
  </defs>
  <path class="cls-1" d="M1079.84,187.45c-1.05-3.78-4.26-5.92-5.53-6.77,0,0-12.64-8.31-39.39-25.5-6.11-3.93-18.07-12.75-18.54-20.31-.82-13.14-7.12-23.66-16.87-32.23-15.68-13.89-38.29-28.95-57.8-37.26-10.39-11.13,6.18-29.92-10.58-51.38-7.06-9.03-15.56-9.09-24.61-2.05-5.6,4.36-11.55,21.65-15.72,27.26-2.24,3.02-4.26,3.2-7.07.95-3.84-3.07-10.04-17.92-20.33-25.03-10.72-7.1-29.13,7.52-29.13,25.64,0,20.33-43.55,16.39-47.81,17.04-20.65,3.45-27.25-2.85-49.31-4.24-33.84-3.78-68.45-2.2-102.22-.25-54.99,3.97-75.5,22.59-131.15,16.84-44.33-2.44-113.77-14.31-151.05-7.63-85.36,15.3-129.83,66.69-187.68,129.07-6.53,6.97-13.25,14.17-16.21,23.57-5.31,16.82-10.2,33.78-15.23,50.68-3.26,8.46,5.85,8.25,2.07,14.98-14.93,27.13-26.43,55.55-31.03,86.32-4.19,18.97-5.56,40.45-17.86,56.21-17.01,19.29-34.5,37.99-56.73,51.68-15.82,9.74-25.22,24.2-28.24,42.78-3.48,28.57-4.47,63.74,20.57,83.01,14.51,10.94,30.98,17.51,49.88,14.71,11.74,2.63,22.16-5.13,18.13-17.45-2.38-7.15-6.97-12.58-13.24-16.77-7.56-5.05-7.76-7.48-1.73-14.47,2.24-2.6,4.94-4.64,8.08-5.95,28.02-10.21,57.41-16.3,84.52-29.2,15.69-5.96,32.84-8.69,46.72-18.83,21.5-14.25,41.4-30.4,58.02-50.31,5.5-6.77,7.26-7.51,12.94-.63,16.47,20.32,41.38,33.36,53.39,57.1,10.65,23.17,15.15,48.48,22.37,72.82,3.54,12.93,12.63,20.51,25.54,24.21,28.68,5.8,58.29,3.37,87.34,3.93,7.64.04,14.96-1.4,21.96-4.46,2.37-1.04,4.72-2.33,7.44-1.31,2.94,1.1,5.07.2,6.42-2.57,1.23-2.52,2.98-2.54,5.08-1.18,4.05,3.43,8.63,2.67,6.94-3.72-4.07-21.73-26.28-27.02-44.23-32.8-25.88-9.19-12.35-33.03-12.86-53.75,1.21-27.02-.74-53.93-3.53-80.79-.86-8.28,5.16-15.27,13.23-13.58,8.11,1.7,14.76-.73,21.61-4.03,18.23-8.78,37.26-15.81,55.27-25.11,4-2.07,4.86-1.45,4.91,3.3.93,37.33,4.65,74.59,10.81,111.42.91,10.94,8.98,19,12.03,29.12,2.37,7.85,5.15,15.57,8.8,22.92,7.87,13.64,18.59,42.22,32.87,47.37,21.67,6.97,44.72,5.35,67.11,6.94,14.69,1.05,29.58,2.02,43.55-4.95,4.22-2.11,7.94.34,11.4,2.98,2.1,1.61,3.7,5.66,6.79,3.8,4.31-1.78-7.6-18.09,10.52-5.95,11.47,5.08.1-15.89-3.01-18.48-9.85-11.84-22.92-17.42-37.82-19.49-4.37-.61-8.71-1.39-13.08-1.94-14.4-1.8-31.82-22.35-29.96-37.78,2.58-21.37,4.23-42.85,8.59-63.96.96-4.73,7.18-26.54,12.49-26.36,10.05,32.06,78.89,60.18,108.91,73.33,6.32,2.57,6.5,2.42,4.8,8.81-3.57,13.41-3.37,26.67,1.14,39.85,1.95,8.28,8.04,16.83,4.16,25.36-3.29,6.62-3.09,6.75,4.6,7.61.76.08,1.52.09,1.99,1.01-.41,2.61-3.05,3.17-4.66,4.71-3.73,2.27-3.67,6.5,1.96,6.94,21.9,3.59,38.9-16.27,40.12-37.03,1.26-11.7,5.47-21.93,12.41-31.39,17.18-25.04,23.17-60.73,2.27-85.49-13.65-17.32-27.99-34.09-41.79-51.29-11.28-13.96-13.78-29.93-12.32-46.82,1.12-12.86-6.9-25.73-6.69-38.57,5.17-14.38,13.12-29.61,20.61-33.64,19.7-10.64,5.79-6.31,29.84-17.26,7.88-3.59,30.14-18.33,48.75-15.92,30.79,3.99,40.16-12.57,71.79-15.22,7.26,1.51,23.83,2.73,31,.79l26.64-2.91c5.26-.57,10.24-2.73,14.21-6.23,5.46-4.81,10.56-11.65,13.2-14.11,6.69-6.26,10.2-22.89,9.23-30.73Z"/>
</svg>