<?xml version="1.0" encoding="UTF-8"?>
<svg id="Layer_1" data-name="Layer 1" xmlns="http://www.w3.org/2000/svg" viewBox="0 0 1080 1225">
  <defs>
    <style>
      .cls-1 {
        fill: #392417;
      }

      .cls-2 {
        fill: #f8f6ef;
      }

      .cls-3 {
        fill: #256a74;
      }
    </style>
  </defs>
  <path class="cls-1" d="M851.5,123.7c-2.57-8.02-4.75-11.18-5.24-14.05-.99-5.24-.59-7.52,0-14.55.69-8.21-6.14-14.84-11.58-15.93-.79-.1-1.48-.3-2.18-.4-3.96-.69-7.03-.69-17.22-.89-2.87-.1-11.08-.2-11.08-.2-4.06.1-7.52.69-12.47.69h-.3c-2.37,0-5.05-.1-8.31-.49-12.47-1.39-26.32-5.15-34.34-5.25-1.19-.1-1.98-.1-2.47-.2l-3.27-.4c-.5-.1-.79-.3-1.09-.49l-2.28-2.08c-.49-.4-.99-.89-1.48-1.38-2.97-2.67-6.23-5.84-11.58-8.21-8.31-3.76-20.09-4.95-32.56-6.14-4.95-.49-13.26-1.68-18.9-2.77-2.08-.4-4.75-1.19-8.41-7.22-.69-.99-9.2-17.02-17.12-28.6-3.96-5.74-8.51-8.91-13.76-9.4-4.26-.4-9.7.89-12.96,4.26-4.65,4.65-8.41,9.7-10.19,21.67-.79,5.94-.79,8.41-1.88,11.87-.4,1.29-1.38,3.46-3.86,5.44-1.39,1.09-8.31,4.95-11.38,6.43-.3.2-.59.3-.79.4-4.26,1.78-8.71,1.68-11.38.89l-9.2-3.27c-.1,0-.1-.1-.2-.1-10.39-4.35-20.58-9.1-28.11-1.48-5.84,5.94-8.31,14.75-9.2,17.91-1.88,6.53-1.78,16.13-1.29,21.57.59,6.53-4.85,13.06-18.6,27.12-14.75,15.04-26.72,31.27-36.22,46.81-15.34,25.04-24.34,48.39-28.11,61.65,0,.02,0,.03-.01.05-.99,3.5-3.14,6.57-6.1,8.69-8.42,6.03-22.1,13.84-28.71,17.27-34.28,17.78-51.58,47.78-60.42,83.93-4.41,18.05-6.86,36.43-7.81,54.89-.72,14.11-4.97,26.69-12.19,38.47-15.51,25.32-31.07,50.61-46.8,75.78-27.59,44.15-55.03,88.38-77.27,135.57-17.66,37.47-31.46,76.16-37.28,117.39-1.93,13.63-3.79,27.31-3.23,41.09.89,21.71-2.53,43.43-9.71,63.94-6.65,19-10.59,38.66-12.57,58.71-1.83,18.61.85,36.88,3.9,55.11,1.67,9.98,5.17,26.14,7.33,36.02,3.16,14.4,13.59,50.25.63,88.11-4.41,12.88-11.49,24.7-15.7,37.71-5.06,15.68-3.42,27.74,3.29,42.53,5.76,12.69,17.33,21.8,30.99,24.59,4.77.98,9.66,1.98,14.49,2.01,31.08.18,51.32.71,82.33-2.14,5.48-.5,11.02-1.73,16.23-3.49,9.31-3.14,12.93-14.4,7.34-22.48-4.93-7.13-12.16-11.26-20.16-14.17-15.42-5.59-8.68-8.24-3.48-20.14,10.78-24.65,35.89-39.84,57.44-55.93,16.1-12.02,15.99-9.27,21.59-20.99,4.01-8.38,3.38-8.62,11.61-5,8.61,3.79,17.2,7.65,25.9,11.21,9.87,4.05,19.18,9.35,27.72,15.74,9.42,7.05,11.96,8.16,31.25,15.25,4.92,1.81,6.63,4.49,8.13,8.46,5.96,15.67,11.91,31.34,17.87,47.01.99,2.61,2.2,5.17,2.88,7.87,4.41,17.43,17.14,23.82,33.47,24.71,16.05.87,32.15.76,48.18-.53,24.7-1.99,41.15,4.2,65.75,1.09,9.75-1.23,19.27-3.18,28.6-6.17,6.19-1.98,8.42-5.32,7.36-11.84-1.42-8.72-7.78-13.13-13.75-19.96-5.48-6.28-12.76-11.42-35.65-16.41-21.12-4.61-13.4-3.56-14.89-25.35-2.68-39.06-11.61-77.35-13.31-116.49-.5-11.5-.1-23.02-1.6-34.52-3.78-29-2.98-80.8-18.22-105.41-9.93-16.04-11.48-14.07-1.58-32.26,4.39-8.06,9.22-15.89,14.48-23.41,10.66-15.22,21.31-30.39,30.68-46.89,6.16,20.5,16.36,37.63,32.13,51.98,6.27,5.7,13.61,10.02,21.35,13.45,6.62,2.94,10.29,7.27,8.55,15.05-.15.68-.17,1.39-.21,2.08-.1,1.8-.02,3.73,2.1,4.19,1.86.41,3.44-.79,4.33-2.32,2.59-4.48,5-9.07,7.38-13.44,3.86.03,2.9,2.79,3.3,4.55.48,2.12.91,4.41,3.33,4.77,2.93.43,4.19-1.93,5.28-4.2.73-1.53.64-3.46,2.25-4.55,4.72,3.84,6.07,4.1,8.65.38,7.46-10.77,11.99-22.21,6.26-35.35-1.53-3.51-2.72-7.38-5.04-10.32-11.55-14.62-15.27-31.83-17.5-49.71-1.17-9.34-2.91-18.62-4.62-27.89-1.71-9.2-1.45-9.75,7.6-9.85,8.03-.09,16.07.06,24.11,0,10.13-.08,20.27-.12,30.32-1.66,5.46-.84,8.74,1.2,9.58,6.83.31,2.07.81,4.11,1.22,6.16,4.19,20.88,13.93,38.57,29.87,52.86,8.01,7.18,7.86,7.35,2.86,17.24-.47.93-1.05,1.83-1.35,2.81-.42,1.36-.55,2.82.74,3.84,1.23.97,2.7.79,3.9.05,2.04-1.26,3.94-2.75,5.87-4.12.6.57,1.43.99,1.43,1.41,0,3.66-2.62,7.97,1.47,10.67,4.12,2.72,8.09-.11,11.79-1.87,14.47-6.88,26.88-28.05,22.64-43.64-6.29-23.12-5.09-46.36-5.17-69.7-.03-9.47-1.11-18.82-3.08-28.06-4.48-21.02-17.6-36.16-33.9-48.92-13.2-10.34-26.73-20.25-40.18-30.26-5.62-4.19-10.82-8.82-15.75-13.8-8.75-8.83-14.01-19.28-13.54-31.85,1.39-37.25-6.88-72.81-18.03-107.95-6.13-19.34-7.23-38.78-3.64-58.36.86-4.7,1.29-9.48,1.38-14.26.51-26.79,5.9-40.35,8.41-61.15-.2-.49-.2-.89-.3-1.29-.2-1.38.1-3.17.4-4.16.59-1.98,6.33-11.38,8.02-16.63.3-.99.59-1.78.89-2.57,1.29-3.56,4.35-3.46,6.53-1.78,2.28,1.78,6.14-3.27,7.52-5.15,1.29-1.88,8.61-10.09,16.92-16.72,1.19-.99,2.67-2.08,4.16-3.27,5.44-4.16,11.88-8.91,13.46-10.39,1.58-1.39,4.55-5.15,6.23-7.42.89-1.09,1.48-1.88,1.48-1.88,2.77-3.27,12.47-10.89,12.47-10.89,4.95-3.96,7.82-5.15,12.57-6.83.2-.1.4-.1.59-.2,3.07-1.19,6.83-2.67,11.38-5.25,8.71-5.05,12.77-11.97,14.75-16.23.49-1.19.99-1.98,1.48-2.87l1.19-1.78c4.85-7.03,7.32-10.98,5.25-16.63-.49-1.29-.89-4.35,1.68-6.33,2.18-1.68,4.75-4.85,5.64-6.73,2.28-4.85,3.07-8.31,1.58-12.96Z"/>
  <path class="cls-3" d="M1079.84,776.16c-1.05-3.78-4.26-5.92-5.53-6.77,0,0-12.64-8.31-39.39-25.5-6.11-3.93-18.07-12.75-18.54-20.31-.82-13.14-7.12-23.66-16.87-32.23-15.68-13.89-38.29-28.95-57.8-37.26-10.39-11.13,6.18-29.92-10.58-51.38-7.06-9.03-15.56-9.09-24.61-2.05-5.6,4.36-11.55,21.65-15.72,27.26-2.24,3.02-4.26,3.2-7.07.95-3.84-3.07-10.04-17.92-20.33-25.03-10.72-7.1-29.13,7.52-29.13,25.64,0,20.33-43.55,16.39-47.81,17.04-20.65,3.45-27.25-2.85-49.31-4.24-33.84-3.78-68.45-2.2-102.22-.25-54.99,3.97-75.5,22.59-131.15,16.84-44.33-2.44-113.77-14.31-151.05-7.63-85.36,15.3-129.83,66.69-187.68,129.07-6.53,6.97-13.25,14.17-16.21,23.57-5.31,16.82-10.2,33.78-15.23,50.68-3.26,8.46,5.85,8.25,2.07,14.98-14.93,27.13-26.43,55.55-31.03,86.32-4.19,18.97-5.56,40.45-17.86,56.21-17.01,19.29-34.5,37.99-56.73,51.68-15.82,9.74-25.22,24.2-28.24,42.78-3.48,28.57-4.47,63.74,20.57,83.01,14.51,10.94,30.98,17.51,49.88,14.71,11.74,2.63,22.16-5.13,18.13-17.45-2.38-7.15-6.97-12.58-13.24-16.77-7.56-5.05-7.76-7.48-1.73-14.47,2.24-2.6,4.94-4.64,8.08-5.95,28.02-10.21,57.41-16.3,84.52-29.2,15.69-5.96,32.84-8.69,46.72-18.83,21.5-14.25,41.4-30.4,58.02-50.31,5.5-6.77,7.26-7.51,12.94-.63,16.47,20.32,41.38,33.36,53.39,57.1,10.65,23.17,15.15,48.48,22.37,72.82,3.54,12.93,12.63,20.51,25.54,24.21,28.68,5.8,58.29,3.37,87.34,3.93,7.64.04,14.96-1.4,21.96-4.46,2.37-1.04,4.72-2.33,7.44-1.31,2.94,1.1,5.07.2,6.42-2.57,1.23-2.52,2.98-2.54,5.08-1.18,4.05,3.43,8.63,2.67,6.94-3.72-4.07-21.73-26.28-27.02-44.23-32.8-25.88-9.19-12.35-33.03-12.86-53.75,1.21-27.02-.74-53.93-3.53-80.79-.86-8.28,5.16-15.27,13.23-13.58,8.11,1.7,14.76-.73,21.61-4.03,18.23-8.78,37.26-15.81,55.27-25.11,4-2.07,4.86-1.45,4.91,3.3.93,37.33,4.65,74.59,10.81,111.42.91,10.94,8.98,19,12.03,29.12,2.37,7.85,5.15,15.57,8.8,22.92,7.87,13.64,18.59,42.22,32.87,47.37,21.67,6.97,44.72,5.35,67.11,6.94,14.69,1.05,29.58,2.02,43.55-4.95,4.22-2.11,7.94.34,11.4,2.98,2.1,1.61,3.7,5.66,6.79,3.8,4.31-1.78-7.6-18.09,10.52-5.95,11.47,5.08.1-15.89-3.01-18.48-9.85-11.84-22.92-17.42-37.82-19.49-4.37-.61-8.71-1.39-13.08-1.94-14.4-1.8-31.82-22.35-29.96-37.78,2.58-21.37,4.23-42.85,8.59-63.96.96-4.73,7.18-26.54,12.49-26.36,10.05,32.06,78.89,60.18,108.91,73.33,6.32,2.57,6.5,2.42,4.8,8.81-3.57,13.41-3.37,26.67,1.14,39.85,1.95,8.28,8.04,16.83,4.16,25.36-3.29,6.62-3.09,6.75,4.6,7.61.76.08,1.52.09,1.99,1.01-.41,2.61-3.05,3.17-4.66,4.71-3.73,2.27-3.67,6.5,1.96,6.94,21.9,3.59,38.9-16.27,40.12-37.03,1.26-11.7,5.47-21.93,12.41-31.39,17.18-25.04,23.17-60.73,2.27-85.49-13.65-17.32-27.99-34.09-41.79-51.29-11.28-13.96-13.78-29.93-12.32-46.82,1.12-12.86-6.9-25.73-6.69-38.57,5.17-14.38,13.12-29.61,20.61-33.64,19.7-10.64,5.79-6.31,29.84-17.26,7.88-3.59,30.14-18.33,48.75-15.92,30.79,3.99,40.16-12.57,71.79-15.22,7.26,1.51,23.83,2.73,31,.79l26.64-2.91c5.26-.57,10.24-2.73,14.21-6.23,5.46-4.81,10.56-11.65,13.2-14.11,6.69-6.26,10.2-22.89,9.23-30.73Z"/>
  <g>
    <path class="cls-2" d="M554.46,888.21c.74,2.44.89,5.1.3,7.71-.59,2.61-1.19,5.06-1.89,7.38l-4.05,9.32c-1.75,2.84-4.01,5.48-7.08,8-3.92,3.21-7.94,5.42-12.11,7.09-.32.21-.66.32-1,.43-2.96,1.1-6,1.93-9.22,2.36.12.16.22.29.35.45-.25-.15-.52-.22-.78-.36-2.89.35-5.89.47-9.08.34-23.16-.98-47.06-4.75-69.69.4-.23.05-.46,0-.69.04-.26.1-.5.24-.76.32-2.13.65-4.25,1.35-6.34,2.12-.85.31-1.7.64-2.55.97-.26.1-.57.22-.81.32-3.51,1.48-6.94,3.16-10.29,4.97-4.9,2.64-9.68,5.55-14.45,8.46l-1.11.67c-1.28.79-2.57,1.57-3.86,2.35-.02.01-.04.03-.06.04l-1.44.94c-2.87,1.77-5.72,3.56-8.45,5.54-.12.09-.9.68-1.27.96-.38.32-1.04.87-1.15.96-1.52,1.29-2.99,2.63-4.38,4.05-2.76,2.81-5.25,5.89-7.7,8.97l-1.83,2.34c-.19.25-.43.58-.81,1.1-1.36,1.83-2.69,3.68-4.01,5.53,0,0,0,0-.01.01-8.02,14.24-12.87,29.58-16.33,45.58-1.74,8.04-3.11,16.16-4.36,24.29-.78,5.07-.98,10.39-1.31,15.77.06-.04.09-.06.15-.1-.06.11-.11.2-.16.3-.09,1.52-.26,3.05-.42,4.58-.04.36-.04.96,0,1.32h0c.1,1.18.05,2.36.11,3.54.02-.01.04-.02.06-.03-.02.04-.04.07-.06.11.5,9.95-.27,19.88-1.52,29.76.01,0,.02,0,.04.01,0,.05-.04.1-.06.15-.55,4.36-1.15,8.71-1.76,13.05-1.75,12.52-3.92,41.24-3.92,41.24-.7,6.12-1.11,13.28-.84,21.25.27,7.83,1.16,14.83,2.25,20.81,2.87,7.92,11.81,9.99,19.56,10.44,10.64.62,21.23,1.68,32.15.06,3.28-.49,8.23-1.21,12.43-.96,1.85.11,3.7.14,5.53-.06,1.28-.14,2.57-.3,3.85-.47,5.33-.7,7.7-2.54,7.85-7.99,0-.25.03-.49.06-.73-.89-4.26-5.05-10.11-8.8-11.83-2.08-.95-4.1-2.28-6.25-3.23-9.52-4.22-13.12-13.42-5.78-20.3,4.6-4.32,4.41-11.38,10.13-13.87,7.96-3.46,8.3-12.7,14.23-17.97.12.32.4.63.72.92.88.83,1.99,1.33,3.11,1.78,1.19.48,1.65,1.93,2.27,3.69,1.38,3.94,1.93,8.23,2.37,12.36.36,3.35.39,6.73.04,10.08.05,0,.07-.04.13-.04-.06.12-.1.25-.16.37-.04.33-.05.66-.07.98.05.26.1.54.1.84.16,6.93-.13,14.05,1.52,20.84,1.32,5.44,3.65,9.09,6.78,12.74,2.24,2.06,5.08,3.64,8.82,4.38,15.06,2.98,30,5.07,45.4,2.43,5.82-1,11.82-1.19,17.78-1.23,2.62-.02,5.19-1.06,6.87-3.06,1.09-1.3,1.85-2.91,2.11-4.98.77-5.94-2.98-11.58-8.28-13.99-.47-.12-.92-.26-1.42-.35-4.39-.8-8.77-1.6-13.14-2.48-5.53-1.12-8.09-5.75-7.26-11.39.81-5.53,1.85-10.96,3.41-16.32.09-.24.17-.49.26-.73,1.77-4.39,2.86-9.03,2.6-13.76-.26-4.68.62-9.38,2.65-13.65.3-.64.77-1.15,1.14-1.75l.93-1.43c1.27-1.7,2.7-3.26,4.41-4.54,1.44-1.08,3.15-1.99,4.89-2.63,1.72-.63,3.27-1.65,4.64-2.87l1.8-1.61c1.63-1.46,4.23-.69,4.8,1.42h0c.15.56.31,1.12.48,1.67,1.29,4.11,3.33,7.93,5.6,11.6,1.86,3,3.06,6.4,4.35,9.94,1.73,4.73,4.14,9.31,6.49,13.86l1.15,2.25c.38.76.8,1.53,1.16,2.28,3.28,6.78,6.4,13.82,8.61,21.09.08.18.16.34.22.54,1.98,6.76,4.54,13.25,6.17,20.02,1.17,3.86,1.76,7.87,4.16,11.11,2.91,3.93,7.17,6.29,11.79,7.31,20.77,4.61,41.71,6.37,62.96,3.59,8.03-1.05,16.25-.57,24.17-2.66.37-.17.74-.36,1.11-.59,2.73-1.67,4.1-4.26,4.77-5.96,2.29-.17,5.71-.48,9.85-1.07,7.82-1.12,11.76-1.73,13.49-3.85,2.97-3.67,1.68-10.27-.86-14.34-4.34-6.97-13.55-8.53-17.55-9.2-7.77-1.32-11.19-1.39-11.19-1.39-6.92-.19-5.64-10.97-7.04-16.73-.87-3.6-1.81-6.87-1.25-10.46.48-3.07.99-6.15,1.21-9.25.64-9.16,1.34-14.65,1.34-14.65,2.54-11.39,2.83-23.38,3.6-35,.82-12.37,1.65-24.7,3.38-36.99,1.46-10.4,3.77-21.57,2.58-32.15-.24-1.6-.29-3.22-.09-4.83,0-.17-.02-.35,0-.52-.31,1.67,0-3.17-.02-3.74-.07-2.03-.26-4.06-.44-6.08-.37-4.27-.62-8.55-.88-12.83-.27-4.43-.49-8.87-.54-13.31-.02-.03-.04-.06-.06-.09.02,0,.04.02.06.02-.04-4.31.07-8.62.51-12.92.58-5.74,2.01-10.93,4.2-15.96l.69-1.68c.89-1.86,1.89-3.69,3.02-5.52,1.67-2.72,3.47-5.37,5.01-8.16.25-.46,1.16-2.77,1.32-2.99l.31-1.16c.24-.82.49-1.63.64-2.49.35-1.93,1.18-3.59,2.34-4.98.19-2.42.86-4.82,2.48-7.18,1.37-.04,3.1,6.04,4.52.21,1.01-4.12,5.03-5.52,7.51-7.39,5.73-4.31,8.13-10.53,11.82-15.93,7.39-10.8,16.52-19.99,25.53-29.33,7.61-7.89,13.29-16.24,10.76-28.23-.48-2.3-.66-4.7-.68-7.13-.65-2.04-.86-4.22-.76-6.36-.12-.54-.38-1.01-.31-1.64.16-1.49-.03-2.99-.83-4.25l-.47-.75c-.49-.62-1.05-1.16-1.63-1.68-3.23-2-8.59-1.1-11.96-.55-3.78.62-7.6,1.46-11.44,1.71-11.69,3.1-23.32,1.93-35.72-4.74-29.97-16.14-58.16-8.72-84.37,10.22-5.68,4.1-5.51,4.34-12.78,3.72-1.03,2.24,2.82,1.74,2.09,3.53-.86,2.1-2.9,1.1-4.33.95-6.67-.7-12.62-3.53-18.56-6.45-7.34-3.61-14.9-5.44-23.1-2.7-7.41,2.48-15.23,10.49-15.1,18.94.13,8.4-.72,17.38,6.47,24.19,10.69,10.13,5,11.77,23.53,15.01,0,.31-.07.58-.17.82-.62,1.51-.76,3.17-.05,4.64.06.13.12.26.18.39l.69,1.75Z"/>
    <path class="cls-2" d="M552.7,903.82c-.84,2.68-1.86,5.2-3.19,7.57"/>
    <path class="cls-2" d="M620.23,812.76c-4.11-7.69-13.9-15.33-21.44-14.61-6.14.59-11.36,3.82-13.78,10.35-1.77,4.76-.47,9.31.58,13.73.67,2.81,2.69,9.24,4.87,7.23,7.51-6.92,20.17-13.1,29.76-16.7Z"/>
  </g>
</svg>